# AST/ASF file generated using VICON BodyLanguage
# -----------------------------------------------
:version 1.10
:name VICON
:units
  mass 1.0
  length 0.45
  angle deg
:documentation
   .ast/.asf automatically generated from VICON data using
   VICON BodyBuilder and BodyLanguage model FoxedUp or BRILLIANT.MOD
:root
   order TX TY TZ RX RY RZ
   axis XYZ
   position 0 0 0  
   orientation 0 0 0 
:bonedata
  begin
     id 1 
     name lhipjoint
     direction 0.623529 -0.717805 0.309788 
     length 2.23224 
     axis 0 0 0  XYZ
  end
  begin
     id 2 
     name lfemur
     direction 0.34202 -0.939693 0  
     length 7.11402  
     axis 0 0 20  XYZ
    dof rx ry rz
    limits (-160.0 20.0)
           (-70.0 70.0)
           (-60.0 70.0)
  end
  begin
     id 3 
     name ltibia
     direction 0.34202 -0.939693 0   
     length 6.78496   
     axis 0 0 20   XYZ
    dof rx
    limits (-10.0 170.0)
  end
  begin
     id 4 
     name lfoot
     direction 0.125078 -0.343648 0.930732   
     length 1.84054   
     axis -90 7.62852e-016 20   XYZ
    dof rx rz
    limits (-45.0 90.0)
           (-70.0 20.0)
  end
  begin
     id 5 
     name ltoes
     direction 1.53565e-011 -4.21893e-011 1   
     length 0.916474   
     axis -90 7.62852e-016 20   XYZ
    dof rx
    limits (-90.0 20.0)
  end
  begin
     id 6 
     name rhipjoint
     direction -0.564688 -0.757748 0.327026   
     length 2.11457  
     axis 0 0 0  XYZ 
  end
  begin
     id 7 
     name rfemur
     direction -0.34202 -0.939693 0   
     length 7.14609   
     axis 0 0 -20   XYZ
    dof rx ry rz
    limits (-160.0 20.0)
           (-70.0 70.0)
           (-70.0 60.0)
  end
  begin
     id 8 
     name rtibia
     direction -0.34202 -0.939693 0   
     length 6.78101   
     axis 0 0 -20   XYZ
    dof rx
    limits (-10.0 170.0)
 end
 begin
     id 9 
     name rfoot
     direction -0.0992671 -0.272734 0.956955   
     length 1.96168  
     axis -90 -7.62852e-016 -20   XYZ
    dof rx rz
    limits (-45.0 90.0)
           (-20.0 70.0)
  end
  begin
     id 10 
     name rtoes
     direction -1.5356e-011 -4.21891e-011 1   
     length 0.982933   
     axis -90 -7.62852e-016 -20   XYZ
    dof rx
    limits (-90.0 20.0)
  end
  begin
     id 11 
     name lowerback
     direction -0.00596953 0.998668 0.0512524   
     length 1.87557   
     axis 0 0 0   XYZ
    dof rx ry rz
    limits (-20.0 45.0)
           (-30.0 30.0)
           (-30.0 30.0)
  end
  begin
     id 12 
     name upperback
     direction 0.00584879 0.999652 0.0257308   
     length 1.87883   
     axis 0 0 0   XYZ
    dof rx ry rz
    limits (-20.0 45.0)
           (-30.0 30.0)
           (-30.0 30.0)
  end
  begin
     id 13 
     name thorax
     direction 0.010104 0.999947 0.00178881   
     length 1.87779   
     axis 0 0 0   XYZ
    dof rx ry rz
    limits (-20.0 45.0)
           (-30.0 30.0)
           (-30.0 30.0)
  end
  begin
     id 14 
     name lowerneck
     direction 0.0120771 0.995934 -0.0892773   
     length 1.40897   
     axis 0 0 0   XYZ
    dof rx ry rz
    limits (-20.0 45.0)
           (-30.0 30.0)
           (-30.0 30.0)
  end
  begin
     id 15 
     name upperneck
     direction -0.030568 0.999465 -0.0116366   
     length 1.38661   
     axis 0 0 0   XYZ
    dof rx ry rz
    limits (-20.0 45.0)
           (-30.0 30.0)
           (-30.0 30.0)
  end
  begin
     id 16
     name head
     direction -0.0170715 0.999854 -0.00104426  
     length 1.47052  
     axis 0 0 0   XYZ
    dof rx ry rz
    limits (-20.0 45.0)
           (-30.0 30.0)
           (-30.0 30.0)
  end
  begin
     id 17 
     name lclavicle
     direction 0.977763 0.206143 0.038532  
     length 3.02424  
     axis 0 0 0   XYZ
    dof ry rz
    limits (-20.0 10.0)
           (0.0 20.0)
  end
  begin
     id 18 
     name lhumerus
     direction 1 -4.48965e-011 -2.62654e-027   
     length 4.68382   
     axis 180 -30 -90   XYZ
    dof rx ry rz
    limits (-60.0 90.0)
           (-90.0 90.0)
           (-90.0 90.0)
  end
  begin
     id 19
     name lradius
     direction 1 -4.48973e-011 -1.54954e-027   
     length 2.98124   
     axis 180 -30 -90   XYZ
    dof rx
    limits (-10.0 170.0)
  end
  begin
     id 20
     name lwrist
     direction 1 -4.48959e-011 7.20928e-028   
     length 1.49062   
     axis -5.52449e-016 90 90   XYZ
    dof ry
    limits (-180.0 0.0)
 end
  begin
     id 21 
     name lhand
     direction 1 -4.48971e-011 1.44186e-027   
     length 0.707595   
     axis -9.20027e-016 90 90   XYZ
    dof rx rz
    limits (-90.0 90.0)
           (-45.0 45.0)
  end
  begin
     id 22 
     name lfingers
     direction 1 -4.48985e-011 2.88371e-027   
     length 0.570481   
     axis -1.84005e-015 90 90   XYZ
    dof rx
    limits (0.0 90.0)
  end
  begin
     id 23
     name lthumb
     direction 0.707107 -6.34929e-011 0.707107   
     length 0.819101   
     axis -90 45 2.85299e-015   XYZ
    dof rx rz
    limits (-45.0 45.0)
           (-45.0 45.0)
  end
  begin
     id 24 
     name rclavicle
     direction -0.958661 0.284411 -0.00895327   
     length 3.11921  
     axis 0 0 0   XYZ 
    dof ry rz
    limits (-10.0 20.0)
           (-20.0 0.0)
  end
  begin
     id 25 
     name rhumerus
     direction -1 -4.48963e-011 -4.22193e-027  
     length 4.75876   
     axis 180 30 90   XYZ
    dof rx ry rz
    limits (-90.0 60.0)
           (-90.0 90.0)
           (-90.0 90.0)
  end
  begin
     id 26 
     name rradius
     direction -1 -4.48968e-011 -1.07616e-027   
     length 2.93293   
     axis 180 30 90   XYZ
    dof rx
    limits (-10.0 170.0)
  end
  begin
     id 27 
     name rwrist
     direction -1 -4.48965e-011 7.20928e-028   
     length 1.46647   
     axis -5.52449e-016 -90 -90   XYZ
    dof ry
    limits (-180.0 0.0)
  end
  begin
     id 28
     name rhand
     direction -1 -4.48971e-011 1.44186e-027   
     length 0.831748   
     axis -9.20027e-016 -90 -90   XYZ
    dof rx rz
    limits (-90.0 90.0)
           (-45.0 45.0)
  end
  begin
     id 29
     name rfingers
     direction -1 -4.48961e-011 2.88371e-027   
     length 0.670577   
     axis -1.84005e-015 -90 -90   XYZ
    dof rx
    limits (0.0 90.0)
  end
  begin
     id 30
     name rthumb
     direction -0.707107 -6.34929e-011 0.707107   
     length 0.962818   
     axis -90 -45 -2.85299e-015   XYZ
    dof rx rz
    limits (-45.0 45.0)
           (-45.0 45.0)
  end
:hierarchy
  begin
    root lhipjoint rhipjoint lowerback
    lhipjoint lfemur
    lfemur ltibia
    ltibia lfoot
    lfoot ltoes
    rhipjoint rfemur
    rfemur rtibia
    rtibia rfoot
    rfoot rtoes
    lowerback upperback
    upperback thorax
    thorax lowerneck lclavicle rclavicle
    lowerneck upperneck
    upperneck head
    lclavicle lhumerus
    lhumerus lradius
    lradius lwrist
    lwrist lhand lthumb
    lhand lfingers
    rclavicle rhumerus
    rhumerus rradius
    rradius rwrist
    rwrist rhand rthumb
    rhand rfingers
  end

#!OML:ASF E:\id_vita\Project 1\Capture day 1\Session 1\Female.ASF
:FULLY-SPECIFIED
:DEGREES
558
root 30.6245 13.4227 -0.469475 -62.4059 -85.6852 -238.957
lowerback 5.45692 -3.67216 -0.899218
upperback 1.15144 -4.99353 -1.47042
thorax -1.91996 -2.49578 -0.656054
lowerneck -13.8333 4.09055 -8.26124
upperneck -3.63454 6.41553 9.75392
head 0.556312 3.4314 4.55174
rclavicle 4.92986e-014 6.48038e-014
rhumerus 18.0476 36.9012 -73.678
rradius 52.188
rwrist 14.9635
rhand -42.2784 628.906
rfingers 7.12502
rthumb -15.1633 61.6699
lclavicle 4.92986e-014 6.48038e-014
lhumerus 20.0556 -29.5618 50.2015
lradius 55.1943
lwrist -14.9494
lhand -60.1009 86.6228
lfingers 7.12502
lthumb -32.2479 -833.779
rfemur -107.452 1.73753 24.0598
rtibia 91.0627
rfoot -26.8343 -7.53748
rtoes -12.1057
lfemur -28.6185 -11.5096 -25.8536
ltibia 29.7346
lfoot -24.412 1.39449
ltoes -9.12745
559
root 30.5779 13.4213 -0.473779 -61.1963 -85.7601 -240.089
lowerback 5.39407 -3.74338 -0.750134
upperback 1.19495 -5.07522 -1.41565
thorax -1.84867 -2.53679 -0.683024
lowerneck -13.8601 4.14027 -8.39825
upperneck -3.74204 6.5101 9.75871
head 0.514966 3.48 4.57687
rclavicle -1.90833e-014 -3.97569e-014
rhumerus 18.1559 36.9286 -73.631
rradius 52.4281
rwrist 15.2279
rhand -42.3943 628.973
rfingers 7.12502
rthumb -15.275 61.6106
lclavicle -1.90833e-014 -3.97569e-014
lhumerus 20.1411 -29.3182 49.9561
lradius 55.3859
lwrist -14.8745
lhand -60.1795 84.3687
lfingers 7.12502
lthumb -32.3227 -831.509
rfemur -107.74 1.82339 24.1583
rtibia 90.6125
rfoot -26.7096 -7.71833
rtoes -10.4345
lfemur -28.2478 -11.6414 -25.7225
ltibia 29.0564
lfoot -23.8869 1.31219
ltoes -7.00946
560
root 30.5295 13.4128 -0.473822 -59.7624 -85.7418 -241.566
lowerback 5.52302 -3.78822 -0.685969
upperback 1.14237 -5.1311 -1.35759
thorax -1.97531 -2.56354 -0.643602
lowerneck -13.924 4.16901 -8.38783
upperneck -3.55788 6.54827 9.54812
head 0.580927 3.5005 4.5159
rclavicle -8.98507e-014 -8.54774e-014
rhumerus 18.1357 37.0645 -73.5001
rradius 52.5027
rwrist 15.2065
rhand -42.3769 629.192
rfingers 7.12502
rthumb -15.2583 61.3904
lclavicle -8.98507e-014 -8.54774e-014
lhumerus 19.7491 -29.1459 50.3241
lradius 55.6028
lwrist -15.147
lhand -60.3224 82.4296
lfingers 7.12502
lthumb -32.4587 -829.543
rfemur -107.906 1.78747 24.1207
rtibia 90.2088
rfoot -26.4924 -7.95945
rtoes -9.48055
lfemur -27.7907 -11.8073 -25.7321
ltibia 28.5721
lfoot -23.4813 1.41549
ltoes -6.90252
561
root 30.486 13.4035 -0.4794 -60.6756 -85.5199 -240.603
lowerback 5.56004 -3.76866 -0.966136
upperback 1.08128 -5.12606 -1.40486
thorax -2.03865 -2.55992 -0.532478
lowerneck -13.9274 4.12581 -8.36738
upperneck -3.3844 6.48142 9.54918
head 0.639842 3.46949 4.51398
rclavicle -7.87187e-014 -7.35503e-014
rhumerus 18.1499 37.0903 -73.4143
rradius 52.4897
rwrist 15.1489
rhand -42.3455 629.155
rfingers 7.12502
rthumb -15.228 61.4257
lclavicle -7.87187e-014 -7.35503e-014
lhumerus 19.4592 -29.017 50.6849
lradius 55.7758
lwrist -15.4502
lhand -60.099 83.2187
lfingers 7.12502
lthumb -32.2461 -830.375
rfemur -108.145 1.84539 23.673
rtibia 89.8192
rfoot -26.2004 -8.25026
rtoes -9.83567
lfemur -27.4314 -11.8955 -25.9857
ltibia 28.061
lfoot -23.0912 1.42605
ltoes -6.99558
562
root 30.4313 13.385 -0.482558 -65.9625 -85.6231 -235.283
lowerback 5.17788 -3.64711 -1.04416
upperback 1.22572 -4.96228 -1.46506
thorax -1.67518 -2.4813 -0.595652
lowerneck -14.0069 4.08585 -8.36273
upperneck -3.32663 6.42635 9.65064
head 0.672123 3.44532 4.54654
rclavicle 5.1684e-014 2.3059e-014
rhumerus 18.3528 37.0089 -73.361
rradius 52.5847
rwrist 15.226
rhand -42.3886 629.069
rfingers 7.12502
rthumb -15.2695 61.5146
lclavicle 5.1684e-014 2.3059e-014
lhumerus 19.4571 -28.7841 50.6163
lradius 56.026
lwrist -15.4754
lhand -59.7158 84.6564
lfingers 7.12502
lthumb -31.8812 -831.886
rfemur -108.236 2.35423 23.3653
rtibia 89.4466
rfoot -26.0386 -8.23649
rtoes -9.75047
lfemur -27.0813 -11.7631 -26.0425
ltibia 27.6575
lfoot -22.7202 1.54824
ltoes -6.56992
563
root 30.3826 13.3808 -0.489833 -66.6892 -85.8013 -234.562
lowerback 5.0705 -3.66148 -0.939737
upperback 1.32306 -4.9693 -1.39924
thorax -1.51832 -2.48535 -0.597439
lowerneck -14.1578 4.09284 -8.39895
upperneck -3.24098 6.44551 9.66814
head 0.71716 3.45947 4.5644
rclavicle 8.50798e-014 1.15693e-013
rhumerus 18.4727 36.9911 -73.3045
rradius 52.8362
rwrist 15.2734
rhand -42.4406 629.176
rfingers 7.12502
rthumb -15.3196 61.4115
lclavicle 8.50798e-014 1.15693e-013
lhumerus 19.4679 -28.5621 50.3393
lradius 56.3743
lwrist -15.3
lhand -59.8963 84.1989
lfingers 7.12502
lthumb -32.0531 -831.394
rfemur -108.267 2.5109 23.4967
rtibia 89.0797
rfoot -25.9897 -7.70624
rtoes -8.35516
lfemur -26.7453 -11.7747 -25.8544
ltibia 27.3222
lfoot -22.3439 1.51577
ltoes -6.4486
564
root 30.3447 13.3689 -0.495295 -65.5348 -85.8296 -235.722
lowerback 5.27348 -3.70809 -0.8771
upperback 1.20913 -5.0306 -1.34489
thorax -1.74926 -2.51404 -0.553236
lowerneck -14.0389 4.12058 -8.61474
upperneck -3.15415 6.5079 9.8041
head 0.708578 3.49577 4.64024
rclavicle -5.56597e-015 -3.22031e-014
rhumerus 18.3572 37.1569 -73.2128
rradius 53.0706
rwrist 15.2068
rhand -42.4514 629.281
rfingers 7.12502
rthumb -15.33 61.3076
lclavicle -5.56597e-015 -3.22031e-014
lhumerus 19.1676 -28.513 50.3766
lradius 56.6862
lwrist -15.3526
lhand -60.097 83.3898
lfingers 7.12502
lthumb -32.2442 -830.546
rfemur -108.384 2.5992 23.2179
rtibia 88.796
rfoot -25.7521 -7.66904
rtoes -8.09242
lfemur -26.4412 -11.8423 -25.792
ltibia 27.0469
lfoot -22.0275 1.40148
ltoes -6.75448
565
root 30.2988 13.3495 -0.496111 -67.7814 -85.8611 -233.564
lowerback 5.38931 -3.6348 -0.892893
upperback 1.13364 -4.93692 -1.34072
thorax -1.88922 -2.46643 -0.535185
lowerneck -13.8326 4.17737 -8.73598
upperneck -3.07278 6.59144 9.83455
head 0.688311 3.53797 4.66581
rclavicle 1.43125e-014 8.74653e-015
rhumerus 18.2831 37.3836 -72.967
rradius 53.2241
rwrist 14.6622
rhand -42.2968 629.678
rfingers 7.12502
rthumb -15.1811 60.8987
lclavicle 1.43125e-014 8.74653e-015
lhumerus 18.7664 -28.4955 50.7695
lradius 56.9435
lwrist -15.7088
lhand -59.9646 83.3763
lfingers 7.12502
lthumb -32.1181 -830.559
rfemur -108.329 2.81555 22.9807
rtibia 88.5343
rfoot -25.5383 -7.871
rtoes -8.6964
lfemur -26.0441 -11.7689 -25.8531
ltibia 26.8631
lfoot -21.8372 1.40818
ltoes -7.2533
566
root 30.2374 13.3246 -0.494222 -72.9688 -85.9669 -228.712
lowerback 5.41059 -3.49305 -0.903803
upperback 1.31346 -4.74722 -1.34753
thorax -1.71486 -2.37329 -0.5551
lowerneck -13.8488 4.23606 -8.73878
upperneck -2.98847 6.67121 9.74886
head 0.710044 3.5783 4.64363
rclavicle 1.10524e-013 8.15017e-014
rhumerus 18.3406 37.272 -72.8432
rradius 53.4213
rwrist 14.6702
rhand -42.3649 629.501
rfingers 7.12502
rthumb -15.2467 61.0806
lclavicle 1.10524e-013 8.15017e-014
lhumerus 18.6357 -28.3688 51.03
lradius 57.2076
lwrist -15.8235
lhand -60.0269 84.1636
lfingers 7.12502
lthumb -32.1774 -831.334
rfemur -107.868 3.18384 22.7441
rtibia 88.3437
rfoot -25.3742 -8.01775
rtoes -8.27976
lfemur -25.3422 -11.6074 -25.9485
ltibia 26.745
lfoot -21.6736 1.61234
ltoes -7.40623
567
root 30.1984 13.3067 -0.499033 -70.6976 -85.9535 -230.906
lowerback 5.27849 -3.57496 -0.878305
upperback 1.36898 -4.85043 -1.31638
thorax -1.58415 -2.42521 -0.541853
lowerneck -13.917 4.25583 -8.76759
upperneck -2.97602 6.70508 9.77425
head 0.719284 3.59737 4.65939
rclavicle 8.90555e-014 9.54166e-015
rhumerus 18.584 37.2307 -72.7663
rradius 53.4745
rwrist 14.6527
rhand -42.3858 629.516
rfingers 7.12502
rthumb -15.2668 61.0675
lclavicle 8.90555e-014 9.54166e-015
lhumerus 18.6455 -28.2062 50.9448
lradius 57.386
lwrist -15.7084
lhand -60.1316 85.3608
lfingers 7.12502
lthumb -32.2771 -832.511
rfemur -107.926 3.14485 22.402
rtibia 88.1781
rfoot -25.1712 -8.09722
rtoes -7.113
lfemur -25.3069 -11.7309 -25.8964
ltibia 26.7491
lfoot -21.3778 1.35398
ltoes -6.10442
568
root 30.1549 13.2847 -0.501214 -71.185 -85.868 -230.516
lowerback 5.37924 -3.61714 -0.952465
upperback 1.36651 -4.91296 -1.32641
thorax -1.63774 -2.456 -0.499965
lowerneck -13.9036 4.26275 -8.73003
upperneck -2.90417 6.7063 9.71242
head 0.741231 3.59717 4.63501
rclavicle 1.43125e-014 -2.8625e-014
rhumerus 18.642 37.3644 -72.6869
rradius 53.5493
rwrist 14.5228
rhand -42.3555 629.369
rfingers 7.12502
rthumb -15.2377 61.2126
lclavicle 1.43125e-014 -2.8625e-014
lhumerus 18.4943 -28.0143 50.9455
lradius 57.504
lwrist -15.7734
lhand -59.8465 85.2693
lfingers 7.12502
lthumb -32.0057 -832.474
rfemur -107.793 3.19431 22.0388
rtibia 88.0795
rfoot -25.108 -8.0929
rtoes -6.03944
lfemur -25.0849 -11.8049 -25.9897
ltibia 26.7827
lfoot -21.0983 1.06409
ltoes -4.69221
569
root 30.1183 13.2595 -0.504588 -73.1384 -85.828 -228.41
lowerback 5.19637 -3.59266 -1.05124
upperback 1.25884 -4.88293 -1.2917
thorax -1.63524 -2.44039 -0.420268
lowerneck -13.8217 4.24502 -8.75793
upperneck -2.77986 6.68164 9.60267
head 0.769713 3.58391 4.60429
rclavicle 2.78299e-014 -3.06128e-014
rhumerus 18.5733 37.5112 -72.5576
rradius 53.7406
rwrist 14.4452
rhand -42.4145 629.42
rfingers 7.12502
rthumb -15.2944 61.1654
lclavicle 2.78299e-014 -3.06128e-014
lhumerus 18.2455 -27.8014 51.1274
lradius 57.7629
lwrist -15.7415
lhand -59.6457 83.9309
lfingers 7.12502
lthumb -31.8145 -831.174
rfemur -107.892 3.40091 21.6836
rtibia 88.0355
rfoot -25.0352 -8.11718
rtoes -6.74562
lfemur -25.1556 -11.7823 -26.0221
ltibia 26.8392
lfoot -20.8055 0.929671
ltoes -4.77462
